<?xml version="1.0" standalone="no"?>
<!DOCTYPE svg PUBLIC "-//W3C//DTD SVG 20010904//EN"
 "http://www.w3.org/TR/2001/REC-SVG-20010904/DTD/svg10.dtd">
<svg version="1.0" xmlns="http://www.w3.org/2000/svg"
 width="800.000000pt" height="800.000000pt" viewBox="0 0 800.000000 800.000000"
 preserveAspectRatio="xMidYMid meet">
<metadata>
Created by potrace 1.14, written by Peter Selinger 2001-2017
</metadata>
<g transform="translate(0.000000,800.000000) scale(0.100000,-0.100000)"
fill="#000000" stroke="none">
<path d="M1355 7993 c-32 -4 -132 -20 -176 -28 -75 -14 -237 -72 -334 -120
-180 -88 -335 -205 -460 -348 -33 -37 -65 -74 -72 -81 -32 -35 -120 -182 -163
-271 -57 -119 -92 -222 -123 -359 l-22 -101 0 -2660 c0 -1463 3 -2687 7 -2720
19 -156 74 -337 148 -483 209 -414 589 -706 1048 -802 83 -18 211 -19 2797
-19 2608 0 2713 1 2799 19 133 28 239 65 361 125 423 207 721 592 815 1057 20
96 20 134 18 2825 l-3 2728 -28 100 c-120 436 -377 765 -757 968 -138 74 -266
117 -480 164 -34 7 -5316 14 -5375 6z"/>
</g>
</svg>
